<svg id="Group_61" data-name="Group 61" xmlns="http://www.w3.org/2000/svg" width="18.738" height="19.12" viewBox="0 0 18.738 19.12">
  <path id="Path_24" data-name="Path 24" d="M139.728,108.715a8.193,8.193,0,0,0-.2-1.954H130.55v3.548h5.269a4.672,4.672,0,0,1-1.954,3.1l-.018.119,2.838,2.2.2.02a9.347,9.347,0,0,0,2.847-7.032" transform="translate(-120.99 -98.943)" fill="#4285f4"/>
  <path id="Path_25" data-name="Path 25" d="M22.465,164.039a9.112,9.112,0,0,0,6.331-2.316l-3.017-2.337a5.658,5.658,0,0,1-3.314.956,5.755,5.755,0,0,1-5.439-3.973l-.112.01-2.951,2.284-.039.107a9.553,9.553,0,0,0,8.54,5.269" transform="translate(-12.905 -144.919)" fill="#34a853"/>
  <path id="Path_26" data-name="Path 26" d="M4.121,77.541A5.885,5.885,0,0,1,3.8,75.65a6.185,6.185,0,0,1,.308-1.891l-.005-.127-2.988-2.32-.1.047a9.54,9.54,0,0,0,0,8.583l3.1-2.4" transform="translate(0 -66.09)" fill="#fbbc05"/>
  <path id="Path_27" data-name="Path 27" d="M22.465,3.7a5.3,5.3,0,0,1,3.7,1.423l2.7-2.634A9.185,9.185,0,0,0,22.465,0a9.553,9.553,0,0,0-8.54,5.269l3.091,2.4A5.779,5.779,0,0,1,22.465,3.7" transform="translate(-12.905)" fill="#eb4335"/>
</svg>
