<svg xmlns="http://www.w3.org/2000/svg" width="82.581" height="77.82" viewBox="0 0 82.581 77.82">
  <g id="Logo" transform="translate(-4 15.01)" style="isolation: isolate">
    <rect id="Rectangle_12" data-name="Rectangle 12" width="82.581" height="69.543" rx="30" transform="translate(4 -13.763)" fill="#ec1b23"/>
    <path id="Path_14" data-name="Path 14" d="M100.132,62.99q-4.619-4.711-13.618-4.711H68.082q-3.591,0-5.02-.866a2.647,2.647,0,0,1-1.443-2.31q0-2.965,6.452-2.968h7.78q9.732,0,16.233-4.405t6.5-13.006a12.925,12.925,0,0,0-1.689-6.4c-.167-.289-.349-.577-.537-.883h0a16.843,16.843,0,0,0-2.887-3.352c9.238-4.33,10.97-11.181,11.216-14.605a8.118,8.118,0,0,0,.072-1.065A8.407,8.407,0,0,0,96.483,0H92.629V.866A8.407,8.407,0,0,0,87.958,8.4h0c0,6.851-13.211,8.909-16.9,8.909q-12.593,0-20.226,4.042T43.2,34.828a11.951,11.951,0,0,0,2.356,7.015A22.469,22.469,0,0,0,51.9,47.73a14.772,14.772,0,0,0-7.373,4.353c-.179.193-.346.39-.508.577l-.075.092a10.26,10.26,0,0,0-2.35,5.664.387.387,0,0,1,0,.058c0,.121-.017.243-.023.364s0,.289,0,.453a10.355,10.355,0,0,0,1.443,5.326c.118.2.243.41.37.612a9.759,9.759,0,0,0,3.522,3.588c2.021,1.085,7.506,3.672,16.967,3.672,2.939,0,6.452.038,9.79.043,2,0,3.941,0,5.656-.043,7.959-.173,15.116-.748,19.79.268V75.21a5.526,5.526,0,0,1,1.057,2.6h4.472l.014-.182h0c.023-.237.043-.479.061-.719v-.081h0c.029-.41.046-.823.046-1.247Q104.743,67.7,100.132,62.99ZM64.759,30.223h0c.087-.092.173-.182.266-.266h0c2.976-2.777,9.677-2.7,12.307.387h0a6.791,6.791,0,0,1,1.392,4.579h0c-.075,4.564-3.308,6.562-7.87,6.562a8.548,8.548,0,0,1-5.681-1.692C62.6,37.625,62.5,32.622,64.759,30.223Z" transform="translate(-25.57 -15.007)" fill="#181818"/>
    <path id="Path_15" data-name="Path 15" d="M84.356,93.244C83.822,81.538,62.909,81,54.508,89.491s-.8,17.9-.8,17.9h0C65.776,109.541,84.893,104.951,84.356,93.244Zm-17.2-3.929a8.555,8.555,0,0,1,5.54-1.732,9.007,9.007,0,0,1,5.8,1.692,7.186,7.186,0,0,1,0,10.162,8.933,8.933,0,0,1-5.8,1.677A8.569,8.569,0,0,1,67,99.419a6.287,6.287,0,0,1-2-5.081A6.09,6.09,0,0,1,67.153,89.315Z" transform="translate(-31.96 -74.549)" fill="#e5e5e5"/>
    <path id="Path_16" data-name="Path 16" d="M92.121,113.7a8.883,8.883,0,0,0-.144-1.233A8.385,8.385,0,0,0,88.353,115a6.049,6.049,0,0,1-2.1,4.879,6.425,6.425,0,0,1-.973.638c-1.565,3.219-6.836,4.125-14.056,4.544s-9.758,2.771-9.758,2.771C73.54,130,92.658,125.409,92.121,113.7Z" transform="translate(-39.724 -95.008)" opacity="0.09"/>
    <path id="Path_17" data-name="Path 17" d="M59.208,93.117a23.165,23.165,0,0,1,7.376-3.245,5.56,5.56,0,0,1,.554-.517,8.555,8.555,0,0,1,5.54-1.732,12.1,12.1,0,0,1,3.054.361l-.17-3.623c-6.9-1.669-16.138.2-21.075,5.182-8.4,8.488-.8,17.9-.8,17.9S51.033,98.556,59.208,93.117Z" transform="translate(-31.945 -74.59)" opacity="0.15"/>
    <path id="Path_18" data-name="Path 18" d="M84.276,119.986q-4.619-4.714-13.649-4.72H52.15q-3.594,0-5.032-.866a2.624,2.624,0,0,1-1.443-2.31q0-2.976,6.467-2.976h7.795q9.752,0,16.268-4.414t6.519-13.035a12.991,12.991,0,0,0-1.692-6.415,17.163,17.163,0,0,0-4.657-5.3c1.443-.378-21.453,4.928-21.453,4.928a9.007,9.007,0,0,1,5.8,1.692,5.744,5.744,0,0,1,2.047,4.076s1.048,8.216-5.745,10.63-12.327,1.192-21.089,3.415h0a14.807,14.807,0,0,0-7.388,4.362,10.4,10.4,0,0,0-1.533,12.573,10.534,10.534,0,0,0,3.9,4.209c2.021,1.091,7.795,3.8,17.284,3.8,4.711,0,10.9.1,15.477,0,13.381-.289,24.23-1.83,25.116,5.041.066-.673.113-1.357.113-2.064Q88.895,124.7,84.276,119.986Z" transform="translate(-14.188 -71.864)" fill="#fff"/>
    <path id="Path_19" data-name="Path 19" d="M81.074,85.244a16.318,16.318,0,0,0-2.52-3.346c3.658,5.485,3.753,13.915-4.175,20.948-5.274,4.68-14.146,5.944-19.524,6.262h5.124q9.749,0,16.268-4.411t6.513-13.037A12.948,12.948,0,0,0,81.074,85.244ZM87.731,129.7a8.356,8.356,0,0,0-6.247-3.753c-5.072-.7-16.265.546-35.864.4-13.684-.1-19.469-5.609-19.432-13.456a9.974,9.974,0,0,0-.577,3.375,10.393,10.393,0,0,0,1.443,5.335,10.494,10.494,0,0,0,3.9,4.209c2.021,1.091,7.795,3.8,17.284,3.8,4.711,0,10.9.1,15.477,0,11.331-.245,20.849-1.389,24.034,2.439a4.879,4.879,0,0,1,1.057,2.422,1.283,1.283,0,0,0,.023.176v-.176a8.008,8.008,0,0,0-1.1-4.763ZM76.4,79.953c1.036-.271-10.48,2.387-17.05,3.909l-4.3,1c3.026.13,4.538.785,5.7,1.732a5.161,5.161,0,0,1,.7.693c11.395-2.4,16.233-6.244,16.233-6.244C77.277,80.668,76.859,80.3,76.4,79.953Z" transform="translate(-14.216 -71.864)" opacity="0.15"/>
    <path id="Path_20" data-name="Path 20" d="M44.874,122.773c11.929-.918,18.2-1.622,20.673-5.811s1.048-9.556-1.4-11.611a6.039,6.039,0,0,1,1.342,3.383h0s1.048,8.216-5.745,10.63-12.324,1.187-21.086,3.409a14.807,14.807,0,0,0-7.388,4.362,11.955,11.955,0,0,0-1.871,2.653C29.674,129.346,33.413,123.659,44.874,122.773Z" transform="translate(-16.912 -89.943)" opacity="0.5" style="mix-blend-mode: overlay;isolation: isolate"/>
    <path id="Path_21" data-name="Path 21" d="M92.958,8.417a8.426,8.426,0,1,0-16.852,0h0c0,6.868-13.242,8.929-16.935,8.929q-12.627,0-20.272,4.042T31.25,34.9a11.978,11.978,0,0,0,2.362,7.03,22.573,22.573,0,0,0,6.351,5.9s-3.106-6.164.892-11.81c3.86-5.456,10.009-7.72,17.322-7.974.248,0,1.29-.023,1.443-.023,29.077,0,32.868-13.28,33.263-18.534a8.745,8.745,0,0,0,.075-1.071Z" transform="translate(-18.228 -15)" fill="#fff"/>
    <path id="Path_22" data-name="Path 22" d="M33,55.709c0-7.844,6.929-13.857,14.972-15.24,7.977-1.371,18.826-.162,24-3.464,4.619-2.956,6.49-5.375,6.21-7.795H76.1c0,6.868-13.242,8.929-16.935,8.929q-12.627,0-20.272,4.042t-7.647,13.5a11.978,11.978,0,0,0,2.362,7.03,22.573,22.573,0,0,0,6.351,5.9S33.011,63.55,33,55.709Z" transform="translate(-18.228 -35.784)" fill="#fff" opacity="0.2"/>
    <path id="Path_23" data-name="Path 23" d="M56.541,56.782c3.86-5.456,10.009-7.72,17.322-7.974.248,0,.5-.023.762-.023h.67c31.335,0,33.3-15.431,33.3-19.605h-2.913c.064,2.457-.9,6.929-7.056,12.062-9.362,7.806-32.4,1.435-41.442,10.91a12.682,12.682,0,0,0-1.539,16.441S52.543,62.429,56.541,56.782Z" transform="translate(-33.903 -35.763)" fill="#fff" opacity="0.2"/>
  </g>
</svg>
