<svg xmlns="http://www.w3.org/2000/svg" width="93.168" height="35.742" viewBox="0 0 93.168 35.742">
  <g id="main_logo_horizontal_" data-name="main logo(horizontal)" transform="translate(0 0.01)" style="isolation: isolate">
    <g id="Layer_2" data-name="Layer 2" transform="translate(0 -0.01)">
      <g id="Layer_1" data-name="Layer 1" transform="translate(0 0)">
        <g id="Group">
          <rect id="Rectangle_16" data-name="Rectangle 16" width="37.928" height="31.941" rx="15.97" transform="translate(0 0.573)" fill="#ec1b23"/>
          <path id="Path_29" data-name="Path 29" d="M68.468,28.931q-2.121-2.164-6.254-2.164H53.747a4.772,4.772,0,0,1-2.306-.4,1.216,1.216,0,0,1-.663-1.061q0-1.362,2.963-1.363h3.573a13,13,0,0,0,7.456-2.023,6.75,6.75,0,0,0,2.986-5.973,5.936,5.936,0,0,0-.776-2.94c-.077-.133-.16-.265-.247-.406h0a7.736,7.736,0,0,0-1.326-1.539c4.243-1.989,5.039-5.135,5.151-6.708a3.729,3.729,0,0,0,.033-.489A3.861,3.861,0,0,0,66.792,0h-1.77V.4a3.861,3.861,0,0,0-2.145,3.459h0c0,3.146-6.067,4.092-7.761,4.092a19.892,19.892,0,0,0-9.29,1.856A6.459,6.459,0,0,0,42.317,16,5.489,5.489,0,0,0,43.4,19.218a10.32,10.32,0,0,0,2.917,2.7,6.785,6.785,0,0,0-3.386,2c-.082.089-.159.179-.233.265l-.034.042a4.712,4.712,0,0,0-1.079,2.6.177.177,0,0,1,0,.027c0,.056-.008.111-.011.167s0,.133,0,.208a4.756,4.756,0,0,0,.663,2.446c.054.094.111.188.17.281a4.482,4.482,0,0,0,1.618,1.648,16.162,16.162,0,0,0,7.793,1.687c1.35,0,2.963.017,4.5.02.919,0,1.81,0,2.6-.02,3.656-.08,6.943-.343,9.089.123v1.126a2.538,2.538,0,0,1,.485,1.193h2.054l.007-.084h0c.011-.109.02-.22.028-.33v-.037h0c.013-.188.021-.378.021-.573A7.938,7.938,0,0,0,68.468,28.931ZM52.221,13.881h0c.04-.042.08-.084.122-.122h0c1.367-1.276,4.445-1.241,5.652.178h0a3.119,3.119,0,0,1,.639,2.1h0c-.034,2.1-1.52,3.014-3.615,3.014a3.926,3.926,0,0,1-2.609-.777A3.322,3.322,0,0,1,52.221,13.881Z" transform="translate(-36.059 0.001)" fill="#181818"/>
          <path id="Path_30" data-name="Path 30" d="M66.079,88.088c-.245-5.377-9.85-5.623-13.709-1.724S52,94.585,52,94.585h0C57.545,95.573,66.326,93.465,66.079,88.088Zm-7.9-1.8a3.929,3.929,0,0,1,2.544-.8,4.137,4.137,0,0,1,2.664.777,3.3,3.3,0,0,1,0,4.667,4.1,4.1,0,0,1-2.664.77,3.936,3.936,0,0,1-2.616-.778,2.887,2.887,0,0,1-.919-2.334A2.8,2.8,0,0,1,58.178,86.283Z" transform="translate(-43.851 -72.607)" fill="#e5e5e5"/>
          <path id="Path_31" data-name="Path 31" d="M75.548,113.036a4.08,4.08,0,0,0-.066-.566,3.851,3.851,0,0,0-1.664,1.164,2.778,2.778,0,0,1-.963,2.241,2.951,2.951,0,0,1-.447.293c-.719,1.478-3.14,1.895-6.456,2.087s-4.482,1.273-4.482,1.273C67.014,120.521,75.794,118.413,75.548,113.036Z" transform="translate(-53.319 -97.556)" opacity="0.09"/>
          <path id="Path_32" data-name="Path 32" d="M54.518,88.06a10.639,10.639,0,0,1,3.388-1.49,2.555,2.555,0,0,1,.255-.237,3.929,3.929,0,0,1,2.544-.8,5.556,5.556,0,0,1,1.4.166l-.078-1.664c-3.17-.766-7.412.091-9.679,2.38-3.858,3.9-.369,8.221-.369,8.221A6.035,6.035,0,0,1,54.518,88.06Z" transform="translate(-43.834 -72.657)" opacity="0.15"/>
          <path id="Path_33" data-name="Path 33" d="M52.533,98.329q-2.122-2.165-6.269-2.168H37.778a4.8,4.8,0,0,1-2.311-.4A1.205,1.205,0,0,1,34.8,94.7q0-1.367,2.97-1.367h3.58a13.027,13.027,0,0,0,7.472-2.027,6.767,6.767,0,0,0,2.994-5.987,5.967,5.967,0,0,0-.777-2.946A7.883,7.883,0,0,0,48.9,79.942c.663-.174-9.853,2.263-9.853,2.263a4.137,4.137,0,0,1,2.664.777,2.638,2.638,0,0,1,.94,1.872s.481,3.774-2.639,4.882-5.662.548-9.686,1.569h0a6.8,6.8,0,0,0-3.393,2,4.779,4.779,0,0,0-.7,5.774,4.838,4.838,0,0,0,1.791,1.933,16.634,16.634,0,0,0,7.938,1.744c2.164,0,5.005.046,7.108,0,6.146-.133,11.129-.841,11.536,2.315.031-.309.052-.623.052-.948A7.94,7.94,0,0,0,52.533,98.329Z" transform="translate(-22.179 -69.333)" fill="#fff"/>
          <path id="Path_34" data-name="Path 34" d="M51.084,82.373a7.494,7.494,0,0,0-1.158-1.537c1.68,2.519,1.724,6.391-1.917,9.621-2.422,2.149-6.5,2.73-8.967,2.876h2.354a13.037,13.037,0,0,0,7.472-2.026,6.756,6.756,0,0,0,2.991-5.988A5.947,5.947,0,0,0,51.084,82.373Zm3.058,20.419a3.838,3.838,0,0,0-2.869-1.724c-2.33-.32-7.47.251-16.472.186-6.285-.044-8.942-2.576-8.925-6.18a4.581,4.581,0,0,0-.265,1.55,5.408,5.408,0,0,0,2.454,4.384A16.629,16.629,0,0,0,36,102.752c2.164,0,5.005.045,7.108,0,5.2-.113,9.576-.638,11.038,1.12a2.241,2.241,0,0,1,.485,1.112.588.588,0,0,0,.011.081v-.081a3.678,3.678,0,0,0-.5-2.188Zm-5.2-22.85c.476-.125-4.813,1.1-7.831,1.8l-1.974.459a4.062,4.062,0,0,1,2.616.8,2.371,2.371,0,0,1,.324.318c5.233-1.1,7.456-2.868,7.456-2.868C49.34,80.271,49.148,80.1,48.938,79.942Z" transform="translate(-22.214 -69.333)" opacity="0.15"/>
          <path id="Path_35" data-name="Path 35" d="M36.507,113.352c5.479-.422,8.36-.745,9.5-2.669a4.486,4.486,0,0,0-.643-5.333,2.774,2.774,0,0,1,.617,1.554h0s.481,3.774-2.639,4.882-5.66.545-9.685,1.566a6.8,6.8,0,0,0-3.393,2,5.491,5.491,0,0,0-.859,1.219C29.526,116.371,31.243,113.759,36.507,113.352Z" transform="translate(-25.502 -91.38)" opacity="0.5" style="mix-blend-mode: overlay;isolation: isolate"/>
          <path id="Path_36" data-name="Path 36" d="M59.592,3.86a3.87,3.87,0,1,0-7.74,0h0c0,3.154-6.082,4.1-7.778,4.1a19.965,19.965,0,0,0-9.311,1.856,6.47,6.47,0,0,0-3.514,6.205,5.5,5.5,0,0,0,1.085,3.229,10.368,10.368,0,0,0,2.917,2.71,5.58,5.58,0,0,1,.41-5.424c1.773-2.506,4.6-3.546,7.956-3.662.114,0,.593-.011.663-.011,13.355,0,15.1-6.1,15.277-8.513a4.014,4.014,0,0,0,.034-.492Z" transform="translate(-27.106 0.01)" fill="#fff"/>
          <path id="Path_37" data-name="Path 37" d="M32.054,41.381c0-3.6,3.182-6.365,6.876-7,3.664-.63,8.646-.074,11.025-1.591,2.122-1.358,2.981-2.469,2.852-3.58h-.956c0,3.154-6.082,4.1-7.778,4.1a19.965,19.965,0,0,0-9.311,1.856,6.464,6.464,0,0,0-3.512,6.2A5.5,5.5,0,0,0,32.335,44.6a10.368,10.368,0,0,0,2.917,2.71S32.059,44.982,32.054,41.381Z" transform="translate(-27.106 -25.336)" fill="#fff" opacity="0.2"/>
          <path id="Path_38" data-name="Path 38" d="M54.782,41.857c1.773-2.506,4.6-3.546,7.956-3.662.114,0,.231-.011.35-.011h.308c14.392,0,15.3-7.087,15.3-9H77.353c.029,1.128-.414,3.182-3.241,5.54-4.3,3.585-14.881.659-19.034,5.011a5.825,5.825,0,0,0-.707,7.551A5.58,5.58,0,0,1,54.782,41.857Z" transform="translate(-46.221 -25.31)" fill="#fff" opacity="0.2"/>
        </g>
        <g id="Group-2" data-name="Group" transform="translate(42.645 4.243)">
          <path id="g" d="M332.348,37.445h3.223V42.1a7.474,7.474,0,0,1-2.265,1.032,9.332,9.332,0,0,1-2.533.367,6.728,6.728,0,0,1-3.16-.731,5.457,5.457,0,0,1-2.193-2.045,5.974,5.974,0,0,1,0-5.957,5.429,5.429,0,0,1,2.217-2.045,6.939,6.939,0,0,1,3.217-.728,7.366,7.366,0,0,1,2.9.542,5.466,5.466,0,0,1,2.131,1.579L333.51,36.2a3.155,3.155,0,0,0-2.468-1.211,2.6,2.6,0,0,0-1.949.74,3.149,3.149,0,0,0-.008,4.008A2.52,2.52,0,0,0,331,40.5a3.505,3.505,0,0,0,1.352-.265Z" transform="translate(-324.226 -31.992)" fill="#fff"/>
          <path id="a" d="M418.834,42.958h-4.182l-.739,1.917H410.14l4.811-11.005H418.6l4.811,11.005h-3.836Zm-1.022-2.673-1.069-2.767-1.069,2.767Z" transform="translate(-398.403 -33.621)" fill="#fff"/>
          <path id="m" d="M524.547,44.91l-.032-5.015-2.387,4.024H520.49L518.1,40.074v4.841H514.72V33.91h3.05l3.58,5.863,3.49-5.863h3.05l.032,11.005Z" transform="translate(-489.116 -33.656)" fill="#fff"/>
          <path id="e" d="M636.989,42.078v2.8H627.84V33.87h8.945v2.8h-5.3v1.286h4.654v2.673h-4.654v1.447Z" transform="translate(-587.237 -33.621)" fill="#fff"/>
          <path id="t" d="M324.411,158.551H321.62V156.06h8.794v2.491h-2.784v7.038h-3.218Z" transform="translate(-321.62 -139.609)" fill="#fff"/>
          <path id="o" d="M392.668,163.745a4.883,4.883,0,0,1,0-8.685,6.281,6.281,0,0,1,5.527,0,4.885,4.885,0,0,1,0,8.685A6.293,6.293,0,0,1,392.668,163.745Zm3.845-2.254a2.1,2.1,0,0,0,.769-.831,2.911,2.911,0,0,0,0-2.519,2.1,2.1,0,0,0-.769-.83,2.144,2.144,0,0,0-2.164,0,2.09,2.09,0,0,0-.769.83,2.911,2.911,0,0,0,0,2.519,2.093,2.093,0,0,0,.769.831A2.152,2.152,0,0,0,396.514,161.491Z" transform="translate(-380.95 -138.186)" fill="#fff"/>
          <path id="p" d="M487.128,156.487a3.432,3.432,0,0,1,0,6.317,5.626,5.626,0,0,1-2.3.435h-1.375v2.342H480.24v-9.53h4.588a5.625,5.625,0,0,1,2.3.436Zm-1.525,3.978a1.2,1.2,0,0,0,0-1.647,1.421,1.421,0,0,0-.98-.293h-1.171v2.232h1.171a1.414,1.414,0,0,0,.98-.288Z" transform="translate(-459.208 -139.6)" fill="#fff"/>
          <path id="u" d="M555.075,164.623a4.4,4.4,0,0,1-1.225-3.315V156.06h3.213v5.146a2.475,2.475,0,0,0,.375,1.525,1.468,1.468,0,0,0,2.164,0,2.48,2.48,0,0,0,.374-1.525V156.06h3.158V161.3a4.379,4.379,0,0,1-1.225,3.315,4.759,4.759,0,0,1-3.417,1.184A4.691,4.691,0,0,1,555.075,164.623Z" transform="translate(-523.058 -139.609)" fill="#fff"/>
          <path id="p-2" data-name="p" d="M641.883,156.488a3.433,3.433,0,0,1,0,6.317,5.626,5.626,0,0,1-2.3.435h-1.375v2.342H635v-9.53h4.588A5.624,5.624,0,0,1,641.883,156.488Zm-1.525,3.978a1.2,1.2,0,0,0,0-1.647,1.424,1.424,0,0,0-.98-.293h-1.171v2.232h1.168a1.413,1.413,0,0,0,.983-.288Z" transform="translate(-593.448 -139.601)" fill="#fff"/>
        </g>
      </g>
    </g>
  </g>
</svg>
