<svg width="38" height="36" viewBox="0 0 38 36" fill="none" xmlns="http://www.w3.org/2000/svg">
<path d="M21.958 0.572998H15.97C7.15001 0.572998 0 7.72301 0 16.543V16.544C0 25.364 7.15001 32.514 15.97 32.514H21.958C30.778 32.514 37.928 25.364 37.928 16.544V16.543C37.928 7.72301 30.778 0.572998 21.958 0.572998Z" fill="#EC1B23"/>
<path d="M32.409 28.932C30.995 27.4893 28.9103 26.768 26.155 26.768H17.688C16.8981 26.8281 16.1056 26.6907 15.382 26.368C15.1857 26.2678 15.0204 26.1162 14.9036 25.9293C14.7868 25.7424 14.723 25.5273 14.719 25.307C14.719 24.399 15.7067 23.9446 17.682 23.944H21.255C23.8879 24.0408 26.4881 23.3353 28.711 21.921C29.684 21.2698 30.4709 20.3768 30.9944 19.3296C31.5179 18.2824 31.76 17.117 31.697 15.948C31.698 14.9172 31.4305 13.904 30.921 13.008C30.844 12.875 30.761 12.743 30.674 12.602C30.3016 12.0329 29.8557 11.5155 29.348 11.063C33.591 9.07398 34.387 5.92798 34.499 4.35498C34.5207 4.19288 34.5317 4.02952 34.532 3.86598C34.5332 2.85194 34.1354 1.87813 33.4246 1.15495C32.7137 0.431767 31.7469 0.0172594 30.733 0.000976562H28.963V0.400977C28.3188 0.720582 27.7767 1.21374 27.3977 1.82488C27.0187 2.43603 26.8179 3.14086 26.818 3.85998C26.818 7.00598 20.751 7.95198 19.057 7.95198C15.8561 7.81346 12.669 8.45018 9.767 9.80798C8.63976 10.383 7.70626 11.2765 7.08243 12.3775C6.4586 13.4785 6.17192 14.7385 6.25801 16.001C6.26983 17.1611 6.64898 18.2877 7.34101 19.219C8.1292 20.2995 9.1199 21.2165 10.258 21.919C8.95665 22.2368 7.77849 22.9327 6.872 23.919C6.79 24.008 6.71301 24.098 6.63901 24.184L6.60501 24.226C5.98881 24.9625 5.61234 25.8696 5.526 26.826C5.52669 26.835 5.52669 26.844 5.526 26.853C5.526 26.909 5.51801 26.964 5.51501 27.02C5.51201 27.076 5.51501 27.153 5.51501 27.228C5.51071 28.0883 5.73985 28.9336 6.178 29.674C6.232 29.768 6.28901 29.862 6.34801 29.955C6.73412 30.6362 7.29197 31.2044 7.96601 31.603C10.382 32.8073 13.0612 33.3873 15.759 33.29C17.109 33.29 18.722 33.307 20.259 33.31C21.178 33.31 22.069 33.31 22.859 33.29C26.515 33.21 29.802 32.947 31.948 33.413V34.539C32.2096 34.8883 32.3766 35.2992 32.433 35.732H34.487L34.494 35.648C34.505 35.539 34.514 35.428 34.522 35.318V35.281C34.535 35.093 34.543 34.903 34.543 34.708C34.5899 33.6516 34.4253 32.5965 34.0589 31.6046C33.6924 30.6127 33.1315 29.7041 32.409 28.932ZM16.162 13.882C16.202 13.84 16.242 13.798 16.284 13.76C17.651 12.484 20.729 12.519 21.936 13.938C22.3964 14.5374 22.6235 15.2837 22.575 16.038C22.541 18.138 21.055 19.052 18.96 19.052C18.0255 19.1124 17.1002 18.8368 16.351 18.275C15.7895 17.6916 15.4605 16.9232 15.4257 16.1142C15.3909 15.3053 15.6527 14.5115 16.162 13.882Z" fill="#181818"/>
<path d="M22.2277 15.4809C21.9827 10.1039 12.3777 9.85795 8.51874 13.7569C4.65974 17.6559 8.14874 21.9779 8.14874 21.9779C13.6937 22.9659 22.4747 20.8579 22.2277 15.4809ZM14.3277 13.681C15.0565 13.1258 15.9564 12.8429 16.8717 12.8809C17.8227 12.8255 18.7637 13.1 19.5357 13.6579C19.8422 13.9644 20.0853 14.3282 20.2511 14.7286C20.417 15.1289 20.5023 15.5581 20.5023 15.9915C20.5023 16.4248 20.417 16.854 20.2511 17.2543C20.0853 17.6547 19.8422 18.0185 19.5357 18.3249C18.7641 18.8832 17.8222 19.1555 16.8717 19.095C15.9349 19.1559 15.007 18.88 14.2557 18.317C13.9369 18.0221 13.6886 17.6591 13.5295 17.255C13.3704 16.8509 13.3045 16.4161 13.3367 15.9829C13.3108 15.5479 13.3868 15.1128 13.5587 14.7123C13.7306 14.3118 13.9936 13.9569 14.3267 13.6759L14.3277 13.681Z" fill="#E5E5E5"/>
<path opacity="0.09" d="M22.2294 15.4801C22.2206 15.2901 22.1985 15.101 22.1634 14.9141C21.5145 15.1462 20.9399 15.5482 20.4994 16.0781C20.5199 16.5003 20.4439 16.9216 20.277 17.3099C20.1101 17.6983 19.8568 18.0434 19.5364 18.3191C19.3965 18.43 19.2469 18.5281 19.0894 18.6121C18.3704 20.0901 15.9494 20.5071 12.6334 20.6991C9.31737 20.8911 8.15137 21.9721 8.15137 21.9721C13.6954 22.9651 22.4754 20.8571 22.2294 15.4801Z" fill="black"/>
<path opacity="0.15" d="M10.6841 15.403C11.7177 14.7121 12.8644 14.2079 14.0721 13.913C14.1516 13.8282 14.2368 13.7491 14.3271 13.676C15.0559 13.1208 15.9558 12.8379 16.8711 12.8759C17.3429 12.8716 17.8134 12.9274 18.2711 13.042L18.1931 11.378C15.0231 10.612 10.7811 11.469 8.5141 13.758C4.6561 17.658 8.1451 21.979 8.1451 21.979C7.82578 20.755 7.8991 19.4617 8.3547 18.2817C8.81029 17.1017 9.62513 16.0947 10.6841 15.403Z" fill="black"/>
<path d="M30.3539 28.996C28.9393 27.5527 26.8496 26.83 24.0849 26.828H15.5989C14.8074 26.8878 14.0133 26.7504 13.2879 26.428C13.0901 26.3293 12.9233 26.1782 12.8056 25.991C12.688 25.8039 12.6241 25.588 12.6209 25.367C12.6209 24.4557 13.6109 24 15.5909 24H19.1709C21.8094 24.0972 24.4152 23.3903 26.6429 21.973C27.6183 21.3203 28.4071 20.4253 28.932 19.3756C29.457 18.326 29.6999 17.1579 29.6369 15.986C29.6372 14.9533 29.3695 13.9382 28.8599 13.04C28.3228 12.0904 27.5945 11.2626 26.7209 10.609C27.3839 10.435 16.8679 12.872 16.8679 12.872C17.8189 12.8166 18.7599 13.091 19.5319 13.649C19.8081 13.8803 20.034 14.1657 20.1957 14.4877C20.3574 14.8096 20.4514 15.1613 20.4719 15.521C20.4719 15.521 20.9529 19.295 17.8329 20.403C14.7129 21.511 12.1709 20.951 8.14692 21.972C6.84339 22.2893 5.66286 22.9852 4.75392 23.972C4.01826 24.7233 3.55095 25.6964 3.42439 26.7402C3.29784 27.7841 3.51911 28.8406 4.05392 29.746C4.46056 30.5436 5.08056 31.2128 5.84492 31.679C8.30601 32.9077 11.0334 33.507 13.7829 33.423C15.9469 33.423 18.7879 33.469 20.8909 33.423C27.0369 33.29 32.0199 32.582 32.4269 35.738C32.4579 35.429 32.4789 35.115 32.4789 34.79C32.5294 33.7313 32.3673 32.6732 32.0024 31.6781C31.6374 30.683 31.0769 29.771 30.3539 28.996Z" fill="white"/>
<path opacity="0.15" d="M28.8705 13.04C28.5521 12.48 28.1629 11.9634 27.7125 11.503C29.3925 14.022 29.4365 17.894 25.7955 21.124C23.3735 23.273 19.2955 23.854 16.8285 24H19.1825C21.8208 24.0968 24.4264 23.3903 26.6545 21.974C27.6302 21.3217 28.4192 20.4264 28.9437 19.3764C29.4681 18.3264 29.71 17.1579 29.6455 15.986C29.6473 14.9533 29.3802 13.938 28.8705 13.04ZM31.9285 33.459C31.6115 32.9736 31.1887 32.5663 30.6918 32.2677C30.1949 31.9692 29.6368 31.787 29.0595 31.735C26.7295 31.415 21.5895 31.986 12.5875 31.921C6.30248 31.877 3.64548 29.345 3.66248 25.741C3.48547 26.2385 3.39582 26.7629 3.39748 27.291C3.42131 28.1657 3.65706 29.0216 4.08449 29.7852C4.51192 30.5488 5.11827 31.1973 5.85148 31.675C8.31161 32.9034 11.038 33.5026 13.7865 33.419C15.9505 33.419 18.7915 33.464 20.8945 33.419C26.0945 33.306 30.4705 32.781 31.9325 34.539C32.1933 34.858 32.3611 35.2428 32.4175 35.651C32.4193 35.6782 32.4229 35.7053 32.4285 35.732V35.651C32.4938 34.8874 32.319 34.1224 31.9285 33.463V33.459ZM26.7285 10.609C27.2045 10.484 21.9155 11.709 18.8975 12.409L16.9235 12.868C17.8618 12.8242 18.7862 13.1069 19.5395 13.668C19.6574 13.7634 19.7659 13.8699 19.8635 13.986C25.0965 12.886 27.3195 11.118 27.3195 11.118C27.1265 10.938 26.9345 10.767 26.7245 10.609H26.7285Z" fill="black"/>
<g style="mix-blend-mode:overlay" opacity="0.5">
<path d="M11.0053 21.972C16.4843 21.55 19.3653 21.227 20.5053 19.303C20.988 18.4637 21.1862 17.4908 21.0703 16.5296C20.9544 15.5684 20.5306 14.6705 19.8623 13.97C20.2229 14.4122 20.4384 14.9548 20.4793 15.524C20.4793 15.524 20.9603 19.298 17.8403 20.406C14.7203 21.514 12.1803 20.951 8.15532 21.972C6.85179 22.2893 5.67126 22.9852 4.76232 23.972C4.42189 24.3374 4.13289 24.7475 3.90332 25.191C4.02432 24.991 5.74132 22.379 11.0053 21.972Z" fill="black"/>
</g>
<path d="M32.486 3.87C32.486 2.84361 32.0783 1.85926 31.3526 1.1335C30.6268 0.407731 29.6424 0 28.616 0C27.5897 0 26.6053 0.407731 25.8795 1.1335C25.1538 1.85926 24.746 2.84361 24.746 3.87C24.746 7.024 18.664 7.97 16.968 7.97C13.7603 7.83097 10.5663 8.46764 7.65705 9.826C6.52782 10.4022 5.59277 11.2975 4.96805 12.4007C4.34332 13.5038 4.05644 14.7662 4.14305 16.031C4.15389 17.195 4.53378 18.3256 5.22805 19.26C6.01617 20.3433 7.00677 21.2636 8.14505 21.97C7.74497 21.106 7.57261 20.1541 7.64437 19.2047C7.71614 18.2553 8.02964 17.34 8.55505 16.546C10.328 14.04 13.155 13 16.511 12.884C16.625 12.884 17.104 12.873 17.174 12.873C30.529 12.873 32.274 6.773 32.451 4.36C32.4725 4.19685 32.4838 4.03254 32.485 3.868L32.486 3.87Z" fill="white"/>
<path opacity="0.2" d="M4.94802 16.045C4.94802 12.445 8.13002 9.68002 11.824 9.04502C15.488 8.41502 20.47 8.97103 22.849 7.45403C24.971 6.09603 25.83 4.98502 25.701 3.87402H24.745C24.745 7.02802 18.663 7.97403 16.967 7.97403C13.7593 7.835 10.5653 8.47166 7.65602 9.83002C6.52748 10.4056 5.59296 11.3001 4.96857 12.4024C4.34418 13.5047 4.05745 14.7661 4.14402 16.03C4.1538 17.1958 4.53375 18.3283 5.22902 19.264C6.01714 20.3473 7.00773 21.2676 8.14602 21.974C8.14602 21.974 4.95302 19.646 4.94802 16.045Z" fill="white"/>
<path opacity="0.2" d="M8.56114 16.547C10.3341 14.041 13.1611 13.001 16.5171 12.885C16.6311 12.885 16.7481 12.874 16.8671 12.874H17.1751C31.5671 12.874 32.4751 5.78702 32.4751 3.87402H31.1321C31.1611 5.00202 30.7181 7.05602 27.8911 9.41402C23.5911 12.999 13.0101 10.073 8.85714 14.425C7.85711 15.3919 7.2361 16.6847 7.10643 18.0697C6.97676 19.4547 7.34698 20.8403 8.15014 21.976C7.74929 21.1113 7.57661 20.1584 7.64856 19.208C7.72051 18.2576 8.03469 17.3415 8.56114 16.547Z" fill="white"/>
</svg>
