<svg xmlns="http://www.w3.org/2000/svg" width="256" height="256"><path fill-opacity=".016" d="M0 128.004v128.004l128.25-.254 128.25-.254.254-127.75L257.008 0H0v128.004m.485.496c0 70.4.119 99.053.265 63.672.146-35.38.146-92.98 0-128C.604 29.153.485 58.1.485 128.5" fill="#1976D2" fill-rule="evenodd"/><path fill-opacity=".139" d="M200.521 8.746c7.202 2.57 11.128 5.711 14.486 11.59 3.71 6.495 4.518 11.828 3.061 20.193-2.854 16.392-13.683 30.717-29.068 38.454-5.891 2.962-5.737 2.637-2.741 5.777 4.704 4.933 7.005 11.798 7.508 22.397.383 8.07.101 10.73-1.716 16.19-3.922 11.784-13.219 23.662-24.461 31.252-12.287 8.294-36.738 14.397-57.716 14.407-6.806.003-14.174.496-16.374 1.095-12.187 3.322-11.118 15.099 1.617 17.831 3.004.644 19.351 1.075 41.182 1.085 39.185.019 44.747.568 55.466 5.476 15.188 6.953 24.765 21.515 26.639 40.507.632 6.405.62 6.445-.764 2.748-2.181-5.823-5.91-10.028-11.77-13.274l-5.37-2.974-23.5.007c-12.925.003-42.175.228-65 .5-37.807.449-42.212.329-49.5-1.346-9.909-2.278-20.661-7.23-26.208-12.072-8.247-7.198-13.561-23.3-9.978-30.23 3.267-6.316 13.557-13.694 24.266-17.397 9.32-3.222 13.277-3.89 35.27-5.949 29.564-2.768 39.423-5.17 47.966-11.686 9.894-7.547 11.791-28.51 3.474-38.395-1.397-1.659-2.37-3.146-2.164-3.303.206-.158 4.424-1.316 9.374-2.574 11.006-2.796 27.259-9.032 34-13.045 4.581-2.726 5.785-4.303 1.56-2.042-3.373 1.805-19.458 6.088-28.53 7.596-4.967.826-18.736 1.895-30.599 2.377-14.097.572-23.97 1.462-28.5 2.569-14.838 3.626-28.433 12.584-35.273 23.243-6.022 9.385-7.513 22.615-3.607 32.007 1.333 3.205 1.318 3.241-.848 2.097-4.81-2.54-17.719-16.651-20.21-22.091-7.555-16.503-4.071-37.283 8.329-49.683C53.279 69.626 74.028 63.685 114 61.129c8.525-.545 18.425-1.752 22-2.681 13.618-3.542 26.196-10.96 29.412-17.346.721-1.431 1.611-5.266 1.978-8.523.828-7.344 3.396-13.183 7.482-17.018 2.278-2.137 2.791-3.157 1.88-3.735-.688-.438-22.308-.802-48.044-.811-38.773-.012-48.113.256-54.5 1.565C38.355 19.93 8.805 49.654 1.497 85.717.113 92.549-.094 98.664.248 122.701c.37 26.067.618 29.495 2.608 36.135 3.085 10.294 8.191 20.626 14.625 29.594 3.029 4.221 5.8 8.889 6.157 10.373 1.341 5.566 6.33 13.912 10.752 17.989 5.458 5.031 12.906 8.51 25.11 11.731 16.49 4.351 25.823 4.816 82.5 4.108 56.57-.706 61.829-.372 69.596 4.428 3.662 2.263 6.404 6.499 6.404 9.891 0 1.884.606 2.05 7.5 2.05h7.5l.153-3.25c.71-15.049-2.577-28.366-9.362-37.929-1.015-1.431-.086-2.836 6.285-9.505 12.087-12.652 20.972-28.933 23.911-43.816.652-3.3 1.597-6.781 2.099-7.736 1.286-2.445 1.203-57.061-.086-56.264-.557.344-1-.413-1-1.711 0-3.925-3.928-16.768-7.408-24.222-1.814-3.887-5.822-10.558-8.907-14.824l-5.607-7.756.085-7.319c.1-8.645-2.091-14.529-7.382-19.821C220.109 9.175 215.746 7.58 205 7.248l-9.5-.293 5.021 1.791M.441 119c0 15.675.138 22.087.307 14.25.169-7.838.169-20.663 0-28.5C.579 96.912.441 103.325.441 119m88.638-9.417c.048 1.165.285 1.402.604.605.289-.722.253-1.585-.079-1.917-.332-.332-.568.258-.525 1.312M93 129.378c0 .207.787.995 1.75 1.75 1.586 1.243 1.621 1.208.378-.378-1.307-1.666-2.128-2.195-2.128-1.372m12.813 7.305c.721.289 1.584.253 1.916-.079.332-.332-.258-.568-1.312-.525-1.165.048-1.402.285-.604.604m15 0c.721.289 1.584.253 1.916-.079.332-.332-.258-.568-1.312-.525-1.165.048-1.402.285-.604.604m-9.063 1.023c1.237.238 3.263.238 4.5 0 1.237-.239.225-.434-2.25-.434s-3.487.195-2.25.434" fill="#1976D2" fill-rule="evenodd"/><path fill-opacity=".667" d="M201.031 8.536c6.141 1.893 12.741 7.78 15.595 13.908 4.063 8.726 2.689 22.529-3.382 33.981-3.532 6.66-15.339 18.322-22.254 21.978-3.019 1.597-5.625 3.007-5.789 3.133-.164.126 1.87 3.094 4.52 6.596 6.438 8.507 9.337 15.556 9.978 24.257 1.546 20.993-8.455 37.99-28.009 47.598-14.48 7.116-20.568 8.19-50.69 8.941-22.935.573-27.017.913-30.344 2.525-2.114 1.025-4.303 2.873-4.866 4.108-1.393 3.058.153 7.307 3.594 9.878 2.649 1.979 4.411 2.085 44.437 2.674 45.021.662 48.667 1.06 59.365 6.481 6.21 3.147 15.117 11.36 18.405 16.972 4.488 7.657 6.549 15.367 7.135 26.684l.557 10.75h14l-.557-10.75c-.612-11.833-2.775-19.529-7.742-27.56l-2.976-4.809 6.498-6.498c7.833-7.833 13.304-15.701 18.551-26.677 4.123-8.624 7.943-21.758 7.943-27.307 0-1.805.45-3.559 1-3.899.62-.383 1-9.363 1-23.618 0-12.65-.387-22.761-.86-22.468-.474.292-1.146-2.193-1.494-5.524-1.333-12.757-8.97-30.795-17.731-41.878-4.032-5.101-4.096-5.308-4.254-13.845-.139-7.486-.536-9.304-2.91-13.343-5.547-9.437-14.18-13.887-26.683-13.754l-6.568.069 4.531 1.397M78.466 12.447c-27.777 4.318-52.997 21.976-66.865 46.816C9.686 62.693 6.631 69.775 4.812 75l-3.308 9.5-.316 31.78c-.291 29.298-.156 32.421 1.731 40 2.29 9.199 10.098 25.624 15.792 33.22l3.748 5 .699-6.149c1.291-11.363 6.848-18.241 20.206-25.012 9.738-4.936 18.944-6.998 39.325-8.808 38.859-3.451 50.201-7.247 56.143-18.793 6.867-13.345 1.158-32.692-11.449-38.795-8.57-4.148-21.376-3.588-28.769 1.258-10.773 7.062-11.601 25.5-1.483 33.019 4.816 3.579 9.168 4.781 17.268 4.77 10.701-.014 17.681-3.659 22.008-11.49l1.658-3-.64 3.5c-.931 5.096-5.403 12.882-8.954 15.59-7.438 5.673-18.671 8.474-41.971 10.466-7.15.611-17.265 1.921-22.478 2.911l-9.477 1.8-5.691-4.379c-12.866-9.901-19.906-21.579-20.639-34.236-1.428-24.659 11.869-41.625 39.239-50.068 10.958-3.38 22.659-5.088 41.546-6.065 25.877-1.338 41.148-5.738 51.088-14.718 5.231-4.725 5.967-6.244 6.996-14.439.95-7.571 2.481-11.158 6.918-16.211l2.964-3.376-5.233-.629c-9.765-1.173-84.709-.53-93.267.801" fill="#1976D2" fill-rule="evenodd"/><path fill-opacity=".68" d="M202.252 8.427c8.644 3.085 15.96 12.211 17.238 21.504.869 6.312-1.728 18.106-5.725 26.01-4.041 7.988-13.151 17.243-22.094 22.443l-6.679 3.884 4.09 4.436c2.249 2.44 5.513 7.443 7.253 11.116 2.693 5.685 3.216 8.05 3.509 15.875.19 5.057-.15 11.503-.755 14.324-3.939 18.367-19.513 32.217-43.375 38.574l-9.214 2.455 7-.589c32.378-2.725 55.022-18.847 59.479-42.35 2.933-15.461-.082-27.061-10.242-39.417-2.175-2.645-3.793-4.934-3.596-5.087.198-.153 3.059-1.799 6.359-3.658 8.449-4.759 18.287-14.963 22.273-23.103 6.36-12.986 6.282-27.97-.191-36.736C222.499 11.224 213.068 6.984 203 7.056l-4.5.032 3.752 1.339M101.401 97.394c-5.972 2.781-8.916 6.481-10.39 13.058-3.156 14.082 5.191 23.962 21.337 25.253 7.895.631 8.026.38 1.579-3.015-13.639-7.18-12.691-29.35 1.532-35.81l4.041-1.836-6.5-.012c-4.762-.009-7.863.622-11.599 2.362M93 171.175c-4.882 1.388-7 3.598-7 7.306 0 6.562 7.023 9.551 22 9.363 8.405-.105 8.436-.114 2.721-.846-6.035-.773-9.307-2.815-10.811-6.748-1.276-3.335.605-7.136 4.332-8.756l3.258-1.416-5.5.051c-3.025.028-7.075.499-9 1.046m86.869 18.284c10.162 2.336 18.563 6.804 24.937 13.263 9.942 10.074 14.331 21.38 14.566 37.523l.128 8.745 6.205.005 6.204.005.647-3.446c.883-4.707-1.211-19.556-3.692-26.189-7.223-19.305-22.923-29.896-45.864-30.939l-9.5-.432 6.369 1.465" fill="#1976D2" fill-rule="evenodd"/></svg>